<svg width="190" height="40" viewBox="0 0 190 40" fill="none" xmlns="http://www.w3.org/2000/svg">
<g clip-path="url(#clip0_1_10)">
<path d="M35.213 11.501L35.206 6.288L25.586 0V4.022L31.931 8.2L31.936 11.402L28.988 13.398L26.977 11.931V9.446L23.7 7.204V11.727L18.505 14.915L18.495 23.335L14.822 25.403L12.937 23.926V21.488L15.169 19.959V19.939V16.166L11.152 18.854L8.081 16.856L5.276 18.693L9.659 21.694V23.536L6.5 25.674L3.277 23.492V16.23L8.062 12.991L8.066 9.875L14.203 13.827L19.361 10.394L16.216 8.559L14.159 9.947L9.677 6.983L14.731 4.036L19.11 6.603V2.775L14.736 0.211L4.794 6.008L4.787 11.223L0 14.465V25.257L4.787 28.499L4.794 33.714L14.414 40V35.981L8.069 31.803L8.064 28.601L11.012 26.605L13.023 28.072V30.557L16.3 32.798V28.275L21.569 25.088L21.628 16.667L25.178 14.599L27.063 16.076V18.514L24.831 20.043V20.063V23.837L28.848 21.148L31.919 23.146L34.724 21.309L30.34 18.306V16.466L33.5 14.329L36.723 16.511V23.772L31.939 27.012L31.934 30.127L25.797 26.173L20.639 29.584L23.784 31.416L25.841 30.055L30.323 33.019L25.269 35.966L20.89 33.399V37.225L25.264 39.789L35.206 33.995L35.213 28.779L40 25.537V14.743L35.213 11.501Z" fill="#FF6A6A"/>
<path d="M63.0938 27C63.0938 28.7448 62.763 30.2292 62.1016 31.4531C61.4453 32.6771 60.5495 33.612 59.4141 34.2578C58.2839 34.8984 57.013 35.2187 55.6016 35.2187C54.1797 35.2187 52.9036 34.8958 51.7734 34.25C50.6432 33.6042 49.75 32.6693 49.0938 31.4453C48.4375 30.2214 48.1094 28.7396 48.1094 27C48.1094 25.2552 48.4375 23.7708 49.0938 22.5469C49.75 21.3229 50.6432 20.3906 51.7734 19.75C52.9036 19.1042 54.1797 18.7812 55.6016 18.7812C57.013 18.7812 58.2839 19.1042 59.4141 19.75C60.5495 20.3906 61.4453 21.3229 62.1016 22.5469C62.763 23.7708 63.0938 25.2552 63.0938 27ZM59.6641 27C59.6641 25.8698 59.4948 24.9167 59.1562 24.1406C58.8229 23.3646 58.3516 22.776 57.7422 22.375C57.1328 21.974 56.4193 21.7734 55.6016 21.7734C54.7839 21.7734 54.0703 21.974 53.4609 22.375C52.8516 22.776 52.3776 23.3646 52.0391 24.1406C51.7057 24.9167 51.5391 25.8698 51.5391 27C51.5391 28.1302 51.7057 29.0833 52.0391 29.8594C52.3776 30.6354 52.8516 31.224 53.4609 31.625C54.0703 32.026 54.7839 32.2266 55.6016 32.2266C56.4193 32.2266 57.1328 32.026 57.7422 31.625C58.3516 31.224 58.8229 30.6354 59.1562 29.8594C59.4948 29.0833 59.6641 28.1302 59.6641 27ZM65.5371 39.5V23H68.8184V25.0156H68.9668C69.1126 24.6927 69.3236 24.3646 69.5996 24.0312C69.8809 23.6927 70.2454 23.4115 70.6934 23.1875C71.1465 22.9583 71.709 22.8438 72.3809 22.8438C73.2559 22.8438 74.0632 23.0729 74.8027 23.5313C75.5423 23.9844 76.1335 24.6693 76.5762 25.5859C77.0189 26.4974 77.2402 27.6406 77.2402 29.0156C77.2402 30.3542 77.0241 31.4844 76.5918 32.4062C76.1647 33.3229 75.5814 34.0182 74.8418 34.4922C74.1074 34.9609 73.2845 35.1953 72.373 35.1953C71.7272 35.1953 71.1777 35.0885 70.7246 34.875C70.2767 34.6615 69.9095 34.3932 69.623 34.0703C69.3366 33.7422 69.1178 33.4115 68.9668 33.0781H68.8652V39.5H65.5371ZM68.7949 29C68.7949 29.7135 68.8939 30.3359 69.0918 30.8672C69.2897 31.3984 69.5762 31.8125 69.9512 32.1094C70.3262 32.401 70.7819 32.5469 71.3184 32.5469C71.86 32.5469 72.3184 32.3984 72.6934 32.1016C73.0684 31.7995 73.3522 31.3828 73.5449 30.8516C73.7428 30.3151 73.8418 29.6979 73.8418 29C73.8418 28.3073 73.7454 27.6979 73.5527 27.1719C73.36 26.6458 73.0762 26.2344 72.7012 25.9375C72.3262 25.6406 71.8652 25.4922 71.3184 25.4922C70.7767 25.4922 70.3184 25.6354 69.9434 25.9219C69.5736 26.2083 69.2897 26.6146 69.0918 27.1406C68.8939 27.6667 68.7949 28.2865 68.7949 29ZM84.9277 35.2344C83.6934 35.2344 82.6309 34.9844 81.7402 34.4844C80.8548 33.9792 80.1725 33.2656 79.6934 32.3437C79.2142 31.4167 78.9746 30.3203 78.9746 29.0547C78.9746 27.8203 79.2142 26.737 79.6934 25.8047C80.1725 24.8724 80.847 24.1458 81.7168 23.625C82.5918 23.1042 83.6178 22.8438 84.7949 22.8438C85.5866 22.8438 86.3236 22.9714 87.0059 23.2266C87.6934 23.4766 88.2923 23.8542 88.8027 24.3594C89.3184 24.8646 89.7194 25.5 90.0059 26.2656C90.2923 27.026 90.4355 27.9167 90.4355 28.9375V29.8516H80.3027V27.7891H87.3027C87.3027 27.3099 87.1986 26.8854 86.9902 26.5156C86.7819 26.1458 86.4928 25.8568 86.123 25.6484C85.7585 25.4349 85.334 25.3281 84.8496 25.3281C84.3444 25.3281 83.8965 25.4453 83.5059 25.6797C83.1204 25.9089 82.8184 26.2187 82.5996 26.6094C82.3809 26.9948 82.2689 27.4245 82.2637 27.8984V29.8594C82.2637 30.4531 82.373 30.9661 82.5918 31.3984C82.8158 31.8307 83.1309 32.1641 83.5371 32.3984C83.9434 32.6328 84.4251 32.75 84.9824 32.75C85.3522 32.75 85.6908 32.6979 85.998 32.5938C86.3053 32.4896 86.5684 32.3333 86.7871 32.125C87.0059 31.9167 87.1725 31.6615 87.2871 31.3594L90.3652 31.5625C90.209 32.3021 89.8887 32.9479 89.4043 33.5C88.9251 34.0469 88.3053 34.474 87.5449 34.7813C86.7897 35.0833 85.9173 35.2344 84.9277 35.2344ZM92.6074 35V23H95.834V25.0937H95.959C96.1777 24.349 96.5449 23.7865 97.0605 23.4063C97.5762 23.0208 98.1699 22.8281 98.8418 22.8281C99.0085 22.8281 99.1882 22.8385 99.3809 22.8594C99.5736 22.8802 99.7428 22.9089 99.8887 22.9453V25.8984C99.7324 25.8516 99.5163 25.8099 99.2402 25.7734C98.9642 25.737 98.7116 25.7188 98.4824 25.7188C97.9928 25.7188 97.5553 25.8255 97.1699 26.0391C96.7897 26.2474 96.4876 26.5391 96.2637 26.9141C96.0449 27.2891 95.9355 27.7214 95.9355 28.2109V35H92.6074ZM104.688 35.2266C103.922 35.2266 103.24 35.0938 102.641 34.8281C102.042 34.5573 101.568 34.1589 101.219 33.6328C100.875 33.1016 100.703 32.4401 100.703 31.6484C100.703 30.9818 100.826 30.4219 101.07 29.9687C101.315 29.5156 101.648 29.151 102.07 28.875C102.492 28.599 102.971 28.3906 103.508 28.25C104.049 28.1094 104.617 28.0104 105.211 27.9531C105.909 27.8802 106.471 27.8125 106.898 27.75C107.326 27.6823 107.635 27.5833 107.828 27.4531C108.021 27.3229 108.117 27.1302 108.117 26.875V26.8281C108.117 26.3333 107.961 25.9505 107.648 25.6797C107.341 25.4089 106.904 25.2734 106.336 25.2734C105.737 25.2734 105.26 25.4062 104.906 25.6719C104.552 25.9323 104.318 26.2604 104.203 26.6562L101.125 26.4062C101.281 25.6771 101.589 25.0469 102.047 24.5156C102.505 23.9792 103.096 23.5677 103.82 23.2812C104.549 22.9896 105.393 22.8438 106.352 22.8438C107.018 22.8438 107.656 22.9219 108.266 23.0781C108.88 23.2344 109.424 23.4766 109.898 23.8047C110.378 24.1328 110.755 24.5547 111.031 25.0703C111.307 25.5807 111.445 26.1927 111.445 26.9062V35H108.289V33.3359H108.195C108.003 33.7109 107.745 34.0417 107.422 34.3281C107.099 34.6094 106.711 34.8307 106.258 34.9922C105.805 35.1484 105.281 35.2266 104.688 35.2266ZM105.641 32.9297C106.13 32.9297 106.563 32.8333 106.937 32.6406C107.312 32.4427 107.607 32.1771 107.82 31.8438C108.034 31.5104 108.141 31.1328 108.141 30.7109V29.4375C108.036 29.5052 107.893 29.5677 107.711 29.625C107.534 29.6771 107.333 29.7266 107.109 29.7734C106.885 29.8151 106.661 29.8542 106.438 29.8906C106.214 29.9219 106.01 29.9505 105.828 29.9766C105.438 30.0339 105.096 30.125 104.805 30.25C104.513 30.375 104.286 30.5443 104.125 30.7578C103.964 30.9661 103.883 31.2266 103.883 31.5391C103.883 31.9922 104.047 32.3385 104.375 32.5781C104.708 32.8125 105.13 32.9297 105.641 32.9297ZM120.41 23V25.5H113.184V23H120.41ZM114.824 20.125H118.152V31.3125C118.152 31.6198 118.199 31.8594 118.293 32.0312C118.387 32.1979 118.517 32.3151 118.684 32.3828C118.855 32.4505 119.053 32.4844 119.277 32.4844C119.434 32.4844 119.59 32.4714 119.746 32.4453C119.902 32.4141 120.022 32.3906 120.105 32.375L120.629 34.8516C120.462 34.9036 120.228 34.9635 119.926 35.0313C119.624 35.1042 119.257 35.1484 118.824 35.1641C118.022 35.1953 117.319 35.0885 116.715 34.8437C116.116 34.599 115.65 34.2187 115.316 33.7031C114.983 33.1875 114.819 32.5365 114.824 31.75V20.125ZM122.578 35V23H125.906V35H122.578ZM124.25 21.4531C123.755 21.4531 123.331 21.2891 122.977 20.9609C122.628 20.6276 122.453 20.2292 122.453 19.7656C122.453 19.3073 122.628 18.9141 122.977 18.5859C123.331 18.2526 123.755 18.0859 124.25 18.0859C124.745 18.0859 125.167 18.2526 125.516 18.5859C125.87 18.9141 126.047 19.3073 126.047 19.7656C126.047 20.2292 125.87 20.6276 125.516 20.9609C125.167 21.2891 124.745 21.4531 124.25 21.4531ZM133.994 35.2344C132.781 35.2344 131.731 34.9766 130.846 34.4609C129.965 33.9401 129.286 33.2161 128.807 32.2891C128.327 31.3568 128.088 30.276 128.088 29.0469C128.088 27.8073 128.327 26.724 128.807 25.7969C129.286 24.8646 129.965 24.1406 130.846 23.625C131.731 23.1042 132.781 22.8438 133.994 22.8438C135.208 22.8438 136.255 23.1042 137.135 23.625C138.02 24.1406 138.702 24.8646 139.182 25.7969C139.661 26.724 139.9 27.8073 139.9 29.0469C139.9 30.276 139.661 31.3568 139.182 32.2891C138.702 33.2161 138.02 33.9401 137.135 34.4609C136.255 34.9766 135.208 35.2344 133.994 35.2344ZM134.01 32.6562C134.562 32.6562 135.023 32.5 135.393 32.1875C135.762 31.8698 136.041 31.4375 136.229 30.8906C136.421 30.3437 136.518 29.7214 136.518 29.0234C136.518 28.3255 136.421 27.7031 136.229 27.1562C136.041 26.6094 135.762 26.1771 135.393 25.8594C135.023 25.5417 134.562 25.3828 134.01 25.3828C133.452 25.3828 132.984 25.5417 132.604 25.8594C132.229 26.1771 131.945 26.6094 131.752 27.1562C131.564 27.7031 131.471 28.3255 131.471 29.0234C131.471 29.7214 131.564 30.3437 131.752 30.8906C131.945 31.4375 132.229 31.8698 132.604 32.1875C132.984 32.5 133.452 32.6562 134.01 32.6562ZM145.393 28.0625V35H142.064V23H145.236V25.1172H145.377C145.643 24.4193 146.088 23.8672 146.713 23.4609C147.338 23.0495 148.096 22.8438 148.986 22.8438C149.82 22.8438 150.546 23.026 151.166 23.3906C151.786 23.7552 152.268 24.276 152.611 24.9531C152.955 25.625 153.127 26.4271 153.127 27.3594V35H149.799V27.9531C149.804 27.2187 149.617 26.6458 149.236 26.2344C148.856 25.8177 148.333 25.6094 147.666 25.6094C147.218 25.6094 146.822 25.7057 146.479 25.8984C146.14 26.0911 145.874 26.3724 145.682 26.7422C145.494 27.1068 145.398 27.5469 145.393 28.0625Z" fill="url(#paint0_linear_1_10)"/>
<path d="M48.3906 18V2H54.7969C55.974 2 56.9557 2.17448 57.7422 2.52344C58.5286 2.8724 59.1198 3.35677 59.5156 3.97656C59.9115 4.59115 60.1094 5.29948 60.1094 6.10156C60.1094 6.72656 59.9844 7.27604 59.7344 7.75C59.4844 8.21875 59.1406 8.60417 58.7031 8.90625C58.2708 9.20312 57.776 9.41406 57.2188 9.53906V9.69531C57.8281 9.72135 58.3984 9.89323 58.9297 10.2109C59.4661 10.5286 59.901 10.974 60.2344 11.5469C60.5677 12.1146 60.7344 12.7917 60.7344 13.5781C60.7344 14.4271 60.5234 15.1849 60.1016 15.8516C59.6849 16.513 59.0677 17.0365 58.25 17.4219C57.4323 17.8073 56.4245 18 55.2266 18H48.3906ZM51.7734 15.2344H54.5313C55.474 15.2344 56.1615 15.0547 56.5938 14.6953C57.026 14.3307 57.2422 13.8464 57.2422 13.2422C57.2422 12.7995 57.1354 12.4089 56.9219 12.0703C56.7083 11.7318 56.4036 11.4661 56.0078 11.2734C55.6172 11.0807 55.151 10.9844 54.6094 10.9844H51.7734V15.2344ZM51.7734 8.69531H54.2812C54.7448 8.69531 55.1563 8.61458 55.5156 8.45312C55.8802 8.28646 56.1667 8.05208 56.375 7.75C56.5885 7.44792 56.6953 7.08594 56.6953 6.66406C56.6953 6.08594 56.4896 5.61979 56.0781 5.26562C55.6719 4.91146 55.0938 4.73437 54.3438 4.73437H51.7734V8.69531ZM70.5684 12.8906V6H73.8965V18H70.7012V15.8203H70.5762C70.3053 16.5234 69.8548 17.0885 69.2246 17.5156C68.5996 17.9427 67.8366 18.1563 66.9355 18.1563C66.1335 18.1563 65.4277 17.974 64.8184 17.6094C64.209 17.2448 63.7324 16.7266 63.3887 16.0547C63.0501 15.3828 62.8783 14.5781 62.873 13.6406V6H66.2012V13.0469C66.2064 13.7552 66.3965 14.3151 66.7715 14.7266C67.1465 15.138 67.6491 15.3437 68.2793 15.3437C68.6803 15.3437 69.0553 15.2526 69.4043 15.0703C69.7533 14.8828 70.0345 14.6068 70.248 14.2422C70.4668 13.8776 70.5736 13.4271 70.5684 12.8906ZM76.5586 18V6H79.8867V18H76.5586ZM78.2305 4.45312C77.7357 4.45312 77.3112 4.28906 76.957 3.96094C76.6081 3.6276 76.4336 3.22917 76.4336 2.76562C76.4336 2.30729 76.6081 1.91406 76.957 1.58594C77.3112 1.2526 77.7357 1.08594 78.2305 1.08594C78.7253 1.08594 79.1471 1.2526 79.4961 1.58594C79.8503 1.91406 80.0273 2.30729 80.0273 2.76562C80.0273 3.22917 79.8503 3.6276 79.4961 3.96094C79.1471 4.28906 78.7253 4.45312 78.2305 4.45312ZM85.8809 2V18H82.5527V2H85.8809ZM92.9688 18.1953C92.0573 18.1953 91.2318 17.9609 90.4922 17.4922C89.7578 17.0182 89.1745 16.3229 88.7422 15.4062C88.3151 14.4844 88.1016 13.3542 88.1016 12.0156C88.1016 10.6406 88.3229 9.4974 88.7656 8.58594C89.2083 7.66927 89.7969 6.98437 90.5313 6.53125C91.2708 6.07292 92.0807 5.84375 92.9609 5.84375C93.6328 5.84375 94.1927 5.95833 94.6406 6.1875C95.0938 6.41146 95.4583 6.69271 95.7344 7.03125C96.0156 7.36458 96.2292 7.69271 96.375 8.01562H96.4766V2H99.7969V18H96.5156V16.0781H96.375C96.2188 16.4115 95.9974 16.7422 95.7109 17.0703C95.4297 17.3932 95.0625 17.6615 94.6094 17.875C94.1615 18.0885 93.6146 18.1953 92.9688 18.1953ZM94.0234 15.5469C94.5599 15.5469 95.013 15.401 95.3828 15.1094C95.7578 14.8125 96.0443 14.3984 96.2422 13.8672C96.4453 13.3359 96.5469 12.7135 96.5469 12C96.5469 11.2865 96.4479 10.6667 96.25 10.1406C96.0521 9.61458 95.7656 9.20833 95.3906 8.92187C95.0156 8.63542 94.5599 8.49219 94.0234 8.49219C93.4766 8.49219 93.0156 8.64062 92.6406 8.9375C92.2656 9.23437 91.9818 9.64583 91.7891 10.1719C91.5964 10.6979 91.5 11.3073 91.5 12C91.5 12.6979 91.5964 13.3151 91.7891 13.8516C91.987 14.3828 92.2708 14.7995 92.6406 15.1016C93.0156 15.3984 93.4766 15.5469 94.0234 15.5469ZM108.002 18.2344C106.768 18.2344 105.705 17.9844 104.814 17.4844C103.929 16.9792 103.247 16.2656 102.768 15.3437C102.288 14.4167 102.049 13.3203 102.049 12.0547C102.049 10.8203 102.288 9.73698 102.768 8.80469C103.247 7.8724 103.921 7.14583 104.791 6.625C105.666 6.10417 106.692 5.84375 107.869 5.84375C108.661 5.84375 109.398 5.97135 110.08 6.22656C110.768 6.47656 111.367 6.85417 111.877 7.35937C112.393 7.86458 112.794 8.5 113.08 9.26562C113.367 10.026 113.51 10.9167 113.51 11.9375V12.8516H103.377V10.7891H110.377C110.377 10.3099 110.273 9.88542 110.064 9.51563C109.856 9.14583 109.567 8.85677 109.197 8.64844C108.833 8.4349 108.408 8.32812 107.924 8.32812C107.419 8.32812 106.971 8.44531 106.58 8.67969C106.195 8.90885 105.893 9.21875 105.674 9.60937C105.455 9.99479 105.343 10.4245 105.338 10.8984V12.8594C105.338 13.4531 105.447 13.9661 105.666 14.3984C105.89 14.8307 106.205 15.1641 106.611 15.3984C107.018 15.6328 107.499 15.75 108.057 15.75C108.426 15.75 108.765 15.6979 109.072 15.5938C109.38 15.4896 109.643 15.3333 109.861 15.125C110.08 14.9167 110.247 14.6615 110.361 14.3594L113.439 14.5625C113.283 15.3021 112.963 15.9479 112.479 16.5C111.999 17.0469 111.38 17.474 110.619 17.7813C109.864 18.0833 108.992 18.2344 108.002 18.2344ZM115.682 18V6H118.908V8.09375H119.033C119.252 7.34896 119.619 6.78646 120.135 6.40625C120.65 6.02083 121.244 5.82812 121.916 5.82812C122.083 5.82812 122.262 5.83854 122.455 5.85937C122.648 5.88021 122.817 5.90885 122.963 5.94531V8.89844C122.807 8.85156 122.59 8.8099 122.314 8.77344C122.038 8.73698 121.786 8.71875 121.557 8.71875C121.067 8.71875 120.63 8.82552 120.244 9.03906C119.864 9.2474 119.562 9.53906 119.338 9.91406C119.119 10.2891 119.01 10.7214 119.01 11.2109V18H115.682ZM134.668 9.42187L131.621 9.60937C131.569 9.34896 131.457 9.11458 131.285 8.90625C131.113 8.69271 130.887 8.52344 130.605 8.39844C130.329 8.26823 129.999 8.20312 129.613 8.20312C129.098 8.20312 128.663 8.3125 128.309 8.53125C127.954 8.74479 127.777 9.03125 127.777 9.39062C127.777 9.67708 127.892 9.91927 128.121 10.1172C128.35 10.3151 128.743 10.474 129.301 10.5937L131.473 11.0312C132.639 11.2708 133.509 11.6562 134.082 12.1875C134.655 12.7187 134.941 13.4167 134.941 14.2812C134.941 15.0677 134.71 15.7578 134.246 16.3516C133.788 16.9453 133.158 17.4089 132.355 17.7422C131.559 18.0703 130.639 18.2344 129.598 18.2344C128.009 18.2344 126.743 17.9036 125.801 17.2422C124.863 16.5755 124.314 15.6693 124.152 14.5234L127.426 14.3516C127.525 14.8359 127.764 15.2057 128.145 15.4609C128.525 15.7109 129.012 15.8359 129.605 15.8359C130.189 15.8359 130.658 15.724 131.012 15.5C131.371 15.2708 131.553 14.9766 131.559 14.6172C131.553 14.3151 131.426 14.0677 131.176 13.875C130.926 13.6771 130.54 13.526 130.02 13.4219L127.941 13.0078C126.77 12.7734 125.897 12.3672 125.324 11.7891C124.757 11.2109 124.473 10.474 124.473 9.57812C124.473 8.80729 124.681 8.14323 125.098 7.58594C125.52 7.02865 126.111 6.59896 126.871 6.29687C127.637 5.99479 128.533 5.84375 129.559 5.84375C131.074 5.84375 132.267 6.16406 133.137 6.80469C134.012 7.44531 134.522 8.31771 134.668 9.42187Z" fill="url(#paint1_linear_1_10)"/>
</g>
<defs>
<linearGradient id="paint0_linear_1_10" x1="44" y1="37.5" x2="161.5" y2="14.5" gradientUnits="userSpaceOnUse">
<stop stop-color="#F6F6F6"/>
<stop offset="1" stop-color="white"/>
</linearGradient>
<linearGradient id="paint1_linear_1_10" x1="47" y1="32.5" x2="158" y2="-2.75906e-06" gradientUnits="userSpaceOnUse">
<stop stop-color="#E3E2E2"/>
<stop offset="1" stop-color="white"/>
</linearGradient>
<clipPath id="clip0_1_10">
<rect width="190" height="40" fill="white"/>
</clipPath>
</defs>
</svg>
